<svg width="306" height="59" viewBox="0 0 306 59" fill="none" xmlns="http://www.w3.org/2000/svg">
    <path d="M0 41.7667V0L29.8996 17.712V59L0 41.7667Z" fill="#116466"/>
    <path d="M31.3406 17.712V59L61 41.7667V35.1846L31.3406 17.712Z" fill="#116466"/>
    <path d="M61 33.8682L32.3012 16.9939L61 0V33.8682Z" fill="#116466"/>
    <path d="M304.763 41.5819H298.407V32.6219C298.407 31.7446 298.267 31.1286 297.987 30.7739C297.725 30.4006 297.259 30.2139 296.587 30.2139C295.597 30.2139 294.617 30.5313 293.647 31.1659V38.9219L296.167 39.7619L295.243 41.5819H286.395V40.0139L288.887 37.9139V22.5979L286.395 20.9459V19.3779L291.883 17.1379H293.647V28.9539L296.783 26.4339C297.287 26.2846 297.856 26.2099 298.491 26.2099C299.909 26.2099 301.039 26.6019 301.879 27.3859C302.737 28.1513 303.167 29.1966 303.167 30.5219V38.9219L305.687 39.7619L304.763 41.5819Z"
          fill="#116466"/>
    <path d="M281.742 41.6378C281.107 41.7872 280.351 41.8618 279.474 41.8618C277.682 41.8618 276.366 41.4605 275.526 40.6578C274.705 39.8365 274.294 38.5765 274.294 36.8778V29.1778H271.27V27.6938L277.29 21.1418H279.054V27.3298H284.094V29.1778H279.054V36.6818C279.054 37.9698 279.782 38.6138 281.238 38.6138C281.611 38.6138 281.975 38.5578 282.33 38.4458C282.703 38.3152 283.17 38.1005 283.73 37.8018L284.57 39.3978L281.742 41.6378Z"
          fill="#116466"/>
    <path d="M269.001 41.582H262.617V39.146L259.453 41.638C259.08 41.7873 258.613 41.862 258.053 41.862C256.261 41.862 254.964 41.4233 254.161 40.546C253.377 39.6686 252.985 38.614 252.985 37.382C252.985 36.654 253.209 35.9446 253.657 35.254C254.105 34.5446 254.749 33.8913 255.589 33.294H262.617V32.818C262.617 31.7913 262.337 31.0353 261.777 30.55C261.217 30.0646 260.47 29.822 259.537 29.822C258.23 29.822 256.522 30.3353 254.413 31.362L253.573 29.766L257.465 26.63C258.417 26.35 259.528 26.21 260.797 26.21C262.888 26.21 264.502 26.686 265.641 27.638C266.798 28.59 267.377 29.9713 267.377 31.782V38.782L269.897 39.762L269.001 41.582ZM259.481 38.11C260.433 38.11 261.478 37.718 262.617 36.934V35.142H258.109C257.96 35.366 257.848 35.5806 257.773 35.786C257.717 35.9726 257.689 36.1873 257.689 36.43C257.689 36.8966 257.848 37.2886 258.165 37.606C258.501 37.9233 258.94 38.082 259.481 38.082V38.11Z"
          fill="#116466"/>
    <path d="M242.182 30.6339C243.172 30.6339 243.956 30.2886 244.534 29.5979C245.113 28.9073 245.402 27.9553 245.402 26.7419C245.402 25.2673 245.048 24.0726 244.338 23.1579C243.629 22.2246 242.584 21.7579 241.202 21.7579C240.288 21.7579 239.429 22.0379 238.626 22.5979V38.6979L243.498 39.7619L242.574 41.5819H230.926V40.0139L233.558 37.9419V22.3459L230.45 21.3939L231.374 19.5739H236.022C237.684 19.5739 239.317 19.5179 240.922 19.4059C242.117 19.3313 242.994 19.2939 243.554 19.2939C245.01 19.2939 246.298 19.5833 247.418 20.1619C248.538 20.7219 249.406 21.4966 250.022 22.4859C250.638 23.4753 250.946 24.5766 250.946 25.7899C250.946 27.1339 250.433 28.3939 249.406 29.5699C248.38 30.7459 247.082 31.6699 245.514 32.3419C243.946 33.0139 242.416 33.3126 240.922 33.2379L239.69 32.4819L240.614 30.6619H242.182V30.6339Z"
          fill="#116466"/>
    <path d="M213.765 38.026C213.765 37.6713 213.522 37.3166 213.037 36.962C212.552 36.5886 211.805 36.122 210.797 35.562C209.808 35.002 209.014 34.526 208.417 34.134C207.82 33.7233 207.297 33.266 206.849 32.762C206.42 32.2393 206.205 31.6793 206.205 31.082C206.205 30.41 206.522 29.6913 207.157 28.926C207.81 28.1606 208.604 27.5166 209.537 26.994C210.47 26.4713 211.329 26.21 212.113 26.21C213.065 26.21 214.176 26.322 215.445 26.546C216.733 26.7513 217.666 26.9846 218.245 27.246V31.922H216.481C215.977 30.9886 215.37 30.2606 214.661 29.738C213.97 29.2153 213.252 28.954 212.505 28.954C212.132 28.954 211.833 29.066 211.609 29.29C211.385 29.4953 211.273 29.7473 211.273 30.046C211.273 30.438 211.516 30.8206 212.001 31.194C212.505 31.5673 213.298 32.062 214.381 32.678C215.818 33.462 216.92 34.1713 217.685 34.806C218.469 35.4406 218.861 36.1686 218.861 36.99C218.861 37.6806 218.525 38.4086 217.853 39.174C217.2 39.9206 216.388 40.5553 215.417 41.078C214.465 41.6006 213.588 41.862 212.785 41.862C211.758 41.862 210.536 41.7593 209.117 41.554C207.717 41.33 206.718 41.0873 206.121 40.826V35.982H207.885C208.445 36.9713 209.136 37.746 209.957 38.306C210.778 38.8473 211.59 39.118 212.393 39.118C212.804 39.118 213.13 39.0153 213.373 38.81C213.634 38.586 213.765 38.3246 213.765 38.026Z"
          fill="#116466"/>
    <path d="M198.526 30.214L196.762 28.842C197.621 27.834 198.256 26.9566 198.666 26.21C199.077 25.4633 199.348 24.6793 199.478 23.858L197.042 22.318V20.75L202.894 18.314L204.602 23.382L198.526 30.214Z"
          fill="#116466"/>
    <path d="M189.416 30.186C188.744 30.186 188.072 30.4847 187.4 31.082V38.642L191.656 39.762L190.76 41.582H180.148V40.014L182.64 37.914V31.558L180.148 29.99V28.422L185.972 25.958L187.036 29.066L189.584 26.434C189.976 26.2847 190.434 26.21 190.956 26.21C191.927 26.21 192.758 26.434 193.448 26.882C194.158 27.33 194.652 27.946 194.932 28.73L192.244 32.09H190.48C190.462 31.418 190.368 30.942 190.2 30.662C190.032 30.3633 189.771 30.214 189.416 30.214V30.186Z"
          fill="#116466"/>
    <path d="M170.345 26.21C172.305 26.21 173.817 26.9566 174.881 28.45C175.963 29.9433 176.486 32.0153 176.449 34.666H166.369C166.555 35.8046 166.957 36.7193 167.573 37.41C168.189 38.082 168.991 38.418 169.981 38.418C171.287 38.418 173.163 37.7646 175.609 36.458L176.449 38.054L172.193 41.442C171.091 41.722 169.813 41.862 168.357 41.862C166.994 41.862 165.762 41.5446 164.661 40.91C163.578 40.2566 162.729 39.37 162.113 38.25C161.515 37.13 161.217 35.8886 161.217 34.526C161.217 33.0513 161.693 31.6793 162.645 30.41C163.597 29.122 164.782 28.1046 166.201 27.358C167.638 26.5926 169.019 26.21 170.345 26.21ZM168.805 29.458C167.983 29.458 167.367 29.738 166.957 30.298C166.546 30.8393 166.322 31.6793 166.285 32.818H171.633C171.483 31.6606 171.203 30.8113 170.793 30.27C170.401 29.7286 169.729 29.458 168.777 29.458H168.805Z"
          fill="#116466"/>
    <path d="M157.48 41.5819H151.124V39.5099L148.436 41.6379C147.838 41.7873 147.148 41.8619 146.364 41.8619C145.132 41.8619 144.021 41.5446 143.032 40.9099C142.061 40.2566 141.296 39.3699 140.736 38.2499C140.194 37.1299 139.924 35.8886 139.924 34.5259C139.924 33.0513 140.4 31.6793 141.352 30.4099C142.304 29.1219 143.489 28.1046 144.908 27.3579C146.345 26.5926 147.727 26.2099 149.052 26.2099C149.799 26.2099 150.489 26.3966 151.124 26.7699V22.5979L148.632 20.9459V19.3779L154.12 17.1379H155.884V38.9219L158.404 39.7619L157.48 41.5819ZM148.072 38.1099C149.173 38.1099 150.19 37.8393 151.124 37.2979V31.9499C151.012 31.2219 150.638 30.6246 150.004 30.1579C149.369 29.6913 148.511 29.4579 147.428 29.4579C145.785 29.4579 144.964 30.7086 144.964 33.2099C144.964 34.6286 145.225 35.8046 145.748 36.7379C146.289 37.6526 147.064 38.1099 148.072 38.1099Z"
          fill="#116466"/>
    <path d="M136.363 41.582H129.979V39.146L126.815 41.638C126.441 41.7873 125.975 41.862 125.415 41.862C123.623 41.862 122.325 41.4233 121.523 40.546C120.739 39.6686 120.347 38.614 120.347 37.382C120.347 36.654 120.571 35.9446 121.019 35.254C121.467 34.5446 122.111 33.8913 122.951 33.294H129.979V32.818C129.979 31.7913 129.699 31.0353 129.139 30.55C128.579 30.0646 127.832 29.822 126.899 29.822C125.592 29.822 123.884 30.3353 121.775 31.362L120.935 29.766L124.827 26.63C125.779 26.35 126.889 26.21 128.159 26.21C130.249 26.21 131.864 26.686 133.003 27.638C134.16 28.59 134.739 29.9713 134.739 31.782V38.782L137.259 39.762L136.363 41.582ZM126.843 38.11C127.795 38.11 128.84 37.718 129.979 36.934V35.142H125.471C125.321 35.366 125.209 35.5806 125.135 35.786C125.079 35.9726 125.051 36.1873 125.051 36.43C125.051 36.8966 125.209 37.2886 125.527 37.606C125.863 37.9233 126.301 38.082 126.843 38.082V38.11Z"
          fill="#116466"/>
    <path d="M110.403 26.21C112.363 26.21 113.875 26.9566 114.939 28.45C116.022 29.9433 116.544 32.0153 116.507 34.666H106.427C106.614 35.8046 107.015 36.7193 107.631 37.41C108.247 38.082 109.05 38.418 110.039 38.418C111.346 38.418 113.222 37.7646 115.667 36.458L116.507 38.054L112.251 41.442C111.15 41.722 109.871 41.862 108.415 41.862C107.052 41.862 105.82 41.5446 104.719 40.91C103.636 40.2566 102.787 39.37 102.171 38.25C101.574 37.13 101.275 35.8886 101.275 34.526C101.275 33.0513 101.751 31.6793 102.703 30.41C103.655 29.122 104.84 28.1046 106.259 27.358C107.696 26.5926 109.078 26.21 110.403 26.21ZM108.863 29.458C108.042 29.458 107.426 29.738 107.015 30.298C106.604 30.8393 106.38 31.6793 106.343 32.818H111.691C111.542 31.6606 111.262 30.8113 110.851 30.27C110.459 29.7286 109.787 29.458 108.835 29.458H108.863Z"
          fill="#116466"/>
    <path d="M98.12 41.582H92.044L86.64 31.894L85.408 31.138L86.108 29.766H87.396C88.404 29.766 89.1973 29.458 89.776 28.842C90.3547 28.226 90.644 27.358 90.644 26.238C90.644 24.9314 90.2893 23.8674 89.58 23.046C88.8893 22.206 87.872 21.786 86.528 21.786C85.688 21.786 84.904 22.0474 84.176 22.57V38.894L87.284 39.79L86.388 41.61H76.476V40.042L79.108 37.83V22.29L76 21.422L76.924 19.602H81.572C83.196 19.602 84.792 19.546 86.36 19.434C87.48 19.3594 88.32 19.322 88.88 19.322C90.3173 19.322 91.5867 19.5834 92.688 20.106C93.808 20.61 94.6667 21.3007 95.264 22.178C95.88 23.0554 96.188 24.0354 96.188 25.118C96.188 26.4247 95.6093 27.638 94.452 28.758C93.2947 29.878 91.8853 30.718 90.224 31.278L92.464 31.922L96.104 38.418L99.016 39.762L98.12 41.582Z"
          fill="#116466"/>
</svg>
