<svg width="230" height="99" viewBox="0 0 230 99" fill="none" xmlns="http://www.w3.org/2000/svg">
<path d="M84.3433 41.7667V0L114.243 17.712V59L84.3433 41.7667Z" fill="black"/>
<path d="M115.684 17.712V59L145.343 41.7667V35.1846L115.684 17.712Z" fill="black"/>
<path d="M145.343 33.8682L116.644 16.9939L145.343 0V33.8682Z" fill="black"/>
<path d="M228.763 98.444H222.407V89.484C222.407 88.6067 222.267 87.9907 221.987 87.636C221.725 87.2627 221.259 87.076 220.587 87.076C219.597 87.076 218.617 87.3933 217.647 88.028V95.784L220.167 96.624L219.243 98.444H210.395V96.876L212.887 94.776V79.46L210.395 77.808V76.24L215.883 74H217.647V85.816L220.783 83.296C221.287 83.1467 221.856 83.072 222.491 83.072C223.909 83.072 225.039 83.464 225.879 84.248C226.737 85.0133 227.167 86.0587 227.167 87.384V95.784L229.687 96.624L228.763 98.444Z" fill="black"/>
<path d="M205.742 98.4999C205.107 98.6492 204.351 98.7239 203.474 98.7239C201.682 98.7239 200.366 98.3226 199.526 97.5199C198.705 96.6986 198.294 95.4386 198.294 93.7399V86.0399H195.27V84.5559L201.29 78.0039H203.054V84.1919H208.094V86.0399H203.054V93.5439C203.054 94.8319 203.782 95.4759 205.238 95.4759C205.611 95.4759 205.975 95.4199 206.33 95.3079C206.703 95.1772 207.17 94.9626 207.73 94.6639L208.57 96.2599L205.742 98.4999Z" fill="black"/>
<path d="M193.001 98.444H186.617V96.008L183.453 98.5C183.08 98.6494 182.613 98.724 182.053 98.724C180.261 98.724 178.964 98.2854 178.161 97.408C177.377 96.5307 176.985 95.476 176.985 94.244C176.985 93.516 177.209 92.8067 177.657 92.116C178.105 91.4067 178.749 90.7534 179.589 90.156H186.617V89.68C186.617 88.6534 186.337 87.8974 185.777 87.412C185.217 86.9267 184.47 86.684 183.537 86.684C182.23 86.684 180.522 87.1974 178.413 88.224L177.573 86.628L181.465 83.492C182.417 83.212 183.528 83.072 184.797 83.072C186.888 83.072 188.502 83.548 189.641 84.5C190.798 85.452 191.377 86.8334 191.377 88.644V95.644L193.897 96.624L193.001 98.444ZM183.481 94.972C184.433 94.972 185.478 94.58 186.617 93.796V92.004H182.109C181.96 92.228 181.848 92.4427 181.773 92.648C181.717 92.8347 181.689 93.0494 181.689 93.292C181.689 93.7587 181.848 94.1507 182.165 94.468C182.501 94.7854 182.94 94.944 183.481 94.944V94.972Z" fill="black"/>
<path d="M166.182 87.496C167.172 87.496 167.956 87.1507 168.534 86.46C169.113 85.7693 169.402 84.8173 169.402 83.604C169.402 82.1293 169.048 80.9347 168.338 80.02C167.629 79.0867 166.584 78.62 165.202 78.62C164.288 78.62 163.429 78.9 162.626 79.46V95.56L167.498 96.624L166.574 98.444H154.926V96.876L157.558 94.804V79.208L154.45 78.256L155.374 76.436H160.022C161.684 76.436 163.317 76.38 164.922 76.268C166.117 76.1933 166.994 76.156 167.554 76.156C169.01 76.156 170.298 76.4453 171.418 77.024C172.538 77.584 173.406 78.3587 174.022 79.348C174.638 80.3373 174.946 81.4387 174.946 82.652C174.946 83.996 174.433 85.256 173.406 86.432C172.38 87.608 171.082 88.532 169.514 89.204C167.946 89.876 166.416 90.1747 164.922 90.1L163.69 89.344L164.614 87.524H166.182V87.496Z" fill="black"/>
<path d="M137.765 94.888C137.765 94.5334 137.522 94.1787 137.037 93.824C136.552 93.4507 135.805 92.984 134.797 92.424C133.808 91.864 133.014 91.388 132.417 90.996C131.82 90.5854 131.297 90.128 130.849 89.624C130.42 89.1014 130.205 88.5414 130.205 87.944C130.205 87.272 130.522 86.5534 131.157 85.788C131.81 85.0227 132.604 84.3787 133.537 83.856C134.47 83.3334 135.329 83.072 136.113 83.072C137.065 83.072 138.176 83.184 139.445 83.408C140.733 83.6134 141.666 83.8467 142.245 84.108V88.784H140.481C139.977 87.8507 139.37 87.1227 138.661 86.6C137.97 86.0774 137.252 85.816 136.505 85.816C136.132 85.816 135.833 85.928 135.609 86.152C135.385 86.3574 135.273 86.6094 135.273 86.908C135.273 87.3 135.516 87.6827 136.001 88.056C136.505 88.4294 137.298 88.924 138.381 89.54C139.818 90.324 140.92 91.0334 141.685 91.668C142.469 92.3027 142.861 93.0307 142.861 93.852C142.861 94.5427 142.525 95.2707 141.853 96.036C141.2 96.7827 140.388 97.4174 139.417 97.94C138.465 98.4627 137.588 98.724 136.785 98.724C135.758 98.724 134.536 98.6214 133.117 98.416C131.717 98.192 130.718 97.9494 130.121 97.688V92.844H131.885C132.445 93.8334 133.136 94.608 133.957 95.168C134.778 95.7094 135.59 95.98 136.393 95.98C136.804 95.98 137.13 95.8774 137.373 95.672C137.634 95.448 137.765 95.1867 137.765 94.888Z" fill="black"/>
<path d="M122.526 87.076L120.762 85.704C121.621 84.696 122.256 83.8187 122.666 83.072C123.077 82.3254 123.348 81.5414 123.478 80.72L121.042 79.18V77.612L126.894 75.176L128.602 80.244L122.526 87.076Z" fill="black"/>
<path d="M113.416 87.0481C112.744 87.0481 112.072 87.3467 111.4 87.9441V95.5041L115.656 96.6241L114.76 98.4441H104.148V96.8761L106.64 94.7761V88.4201L104.148 86.8521V85.2841L109.972 82.8201L111.036 85.9281L113.584 83.2961C113.976 83.1467 114.434 83.0721 114.956 83.0721C115.927 83.0721 116.758 83.2961 117.448 83.7441C118.158 84.1921 118.652 84.8081 118.932 85.5921L116.244 88.9521H114.48C114.462 88.2801 114.368 87.8041 114.2 87.5241C114.032 87.2254 113.771 87.0761 113.416 87.0761V87.0481Z" fill="black"/>
<path d="M94.3448 83.072C96.3048 83.072 97.8168 83.8187 98.8808 85.312C99.9635 86.8054 100.486 88.8774 100.449 91.528H90.3688C90.5555 92.6667 90.9568 93.5814 91.5728 94.272C92.1888 94.944 92.9915 95.28 93.9808 95.28C95.2875 95.28 97.1635 94.6267 99.6088 93.32L100.449 94.916L96.1928 98.304C95.0915 98.584 93.8128 98.724 92.3568 98.724C90.9941 98.724 89.7621 98.4067 88.6608 97.772C87.5781 97.1187 86.7288 96.232 86.1128 95.112C85.5155 93.992 85.2168 92.7507 85.2168 91.388C85.2168 89.9134 85.6928 88.5414 86.6448 87.272C87.5968 85.984 88.7821 84.9667 90.2008 84.22C91.6381 83.4547 93.0195 83.072 94.3448 83.072ZM92.8048 86.32C91.9835 86.32 91.3675 86.6 90.9568 87.16C90.5461 87.7014 90.3221 88.5414 90.2848 89.68H95.6328C95.4835 88.5227 95.2035 87.6734 94.7928 87.132C94.4008 86.5907 93.7288 86.32 92.7768 86.32H92.8048Z" fill="black"/>
<path d="M81.4798 98.444H75.1238V96.372L72.4358 98.5C71.8385 98.6493 71.1478 98.724 70.3638 98.724C69.1318 98.724 68.0212 98.4067 67.0318 97.772C66.0612 97.1187 65.2958 96.232 64.7358 95.112C64.1945 93.992 63.9238 92.7507 63.9238 91.388C63.9238 89.9133 64.3998 88.5413 65.3518 87.272C66.3038 85.984 67.4892 84.9667 68.9078 84.22C70.3452 83.4547 71.7265 83.072 73.0518 83.072C73.7985 83.072 74.4892 83.2587 75.1238 83.632V79.46L72.6318 77.808V76.24L78.1198 74H79.8838V95.784L82.4038 96.624L81.4798 98.444ZM72.0718 94.972C73.1732 94.972 74.1905 94.7013 75.1238 94.16V88.812C75.0118 88.084 74.6385 87.4867 74.0038 87.02C73.3692 86.5533 72.5105 86.32 71.4278 86.32C69.7852 86.32 68.9638 87.5707 68.9638 90.072C68.9638 91.4907 69.2252 92.6667 69.7478 93.6C70.2892 94.5147 71.0638 94.972 72.0718 94.972Z" fill="black"/>
<path d="M60.3627 98.444H53.9787V96.008L50.8147 98.5C50.4413 98.6494 49.9747 98.724 49.4147 98.724C47.6227 98.724 46.3253 98.2854 45.5227 97.408C44.7387 96.5307 44.3467 95.476 44.3467 94.244C44.3467 93.516 44.5707 92.8067 45.0187 92.116C45.4667 91.4067 46.1107 90.7534 46.9507 90.156H53.9787V89.68C53.9787 88.6534 53.6987 87.8974 53.1387 87.412C52.5787 86.9267 51.832 86.684 50.8987 86.684C49.592 86.684 47.884 87.1974 45.7747 88.224L44.9347 86.628L48.8267 83.492C49.7787 83.212 50.8893 83.072 52.1587 83.072C54.2493 83.072 55.864 83.548 57.0027 84.5C58.16 85.452 58.7387 86.8334 58.7387 88.644V95.644L61.2587 96.624L60.3627 98.444ZM50.8427 94.972C51.7947 94.972 52.84 94.58 53.9787 93.796V92.004H49.4707C49.3213 92.228 49.2093 92.4427 49.1347 92.648C49.0787 92.8347 49.0507 93.0494 49.0507 93.292C49.0507 93.7587 49.2093 94.1507 49.5267 94.468C49.8627 94.7854 50.3013 94.944 50.8427 94.944V94.972Z" fill="black"/>
<path d="M34.4029 83.072C36.3629 83.072 37.8749 83.8187 38.9389 85.312C40.0216 86.8054 40.5442 88.8774 40.5069 91.528H30.4269C30.6136 92.6667 31.0149 93.5814 31.6309 94.272C32.2469 94.944 33.0496 95.28 34.0389 95.28C35.3456 95.28 37.2216 94.6267 39.6669 93.32L40.5069 94.916L36.2509 98.304C35.1496 98.584 33.8709 98.724 32.4149 98.724C31.0522 98.724 29.8202 98.4067 28.7189 97.772C27.6362 97.1187 26.7869 96.232 26.1709 95.112C25.5736 93.992 25.2749 92.7507 25.2749 91.388C25.2749 89.9134 25.7509 88.5414 26.7029 87.272C27.6549 85.984 28.8402 84.9667 30.2589 84.22C31.6962 83.4547 33.0776 83.072 34.4029 83.072ZM32.8629 86.32C32.0416 86.32 31.4256 86.6 31.0149 87.16C30.6042 87.7014 30.3802 88.5414 30.3429 89.68H35.6909C35.5416 88.5227 35.2616 87.6734 34.8509 87.132C34.4589 86.5907 33.7869 86.32 32.8349 86.32H32.8629Z" fill="black"/>
<path d="M22.12 98.4441H16.044L10.64 88.7561L9.408 88.0001L10.108 86.6281H11.396C12.404 86.6281 13.1973 86.3201 13.776 85.7041C14.3547 85.0881 14.644 84.2201 14.644 83.1001C14.644 81.7934 14.2893 80.7294 13.58 79.9081C12.8893 79.0681 11.872 78.6481 10.528 78.6481C9.688 78.6481 8.904 78.9094 8.176 79.4321V95.7561L11.284 96.6521L10.388 98.4721H0.476V96.9041L3.108 94.6921V79.1521L0 78.2841L0.924 76.4641H5.572C7.196 76.4641 8.792 76.4081 10.36 76.2961C11.48 76.2214 12.32 76.1841 12.88 76.1841C14.3173 76.1841 15.5867 76.4454 16.688 76.9681C17.808 77.4721 18.6667 78.1627 19.264 79.0401C19.88 79.9174 20.188 80.8974 20.188 81.9801C20.188 83.2867 19.6093 84.5001 18.452 85.6201C17.2947 86.7401 15.8853 87.5801 14.224 88.1401L16.464 88.7841L20.104 95.2801L23.016 96.6241L22.12 98.4441Z" fill="black"/>
</svg>
