<!--<svg xmlns="http://www.w3.org/2000/svg" viewBox="0 0 50 50" width="50px" height="50px">-->
<!--    <path d="M 41.9375 8.625 C 41.273438 8.648438 40.664063 9 40.3125 9.5625 L 21.5 38.34375 L 9.3125 27.8125 C 8.789063 27.269531 8.003906 27.066406 7.28125 27.292969 C 6.5625 27.515625 6.027344 28.125 5.902344 28.867188 C 5.777344 29.613281 6.078125 30.363281 6.6875 30.8125 L 20.625 42.875 C 21.0625 43.246094 21.640625 43.410156 22.207031 43.328125 C 22.777344 43.242188 23.28125 42.917969 23.59375 42.4375 L 43.6875 11.75 C 44.117188 11.121094 44.152344 10.308594 43.78125 9.644531 C 43.410156 8.984375 42.695313 8.589844 41.9375 8.625 Z"/>-->
<!--</svg>-->
<svg xmlns="http://www.w3.org/2000/svg" x="0px" y="0px" width="100" height="100" viewBox="0,0,256,256">
    <g fill="#ffffff" fill-rule="nonzero" stroke="none" stroke-width="1" stroke-linecap="butt" stroke-linejoin="miter"
       stroke-miterlimit="10" stroke-dasharray="" stroke-dashoffset="0" font-family="none" font-weight="none"
       font-size="none" text-anchor="none" style="mix-blend-mode: normal">
        <g transform="scale(5.12,5.12)">
            <path d="M41.9375,8.625c-0.66406,0.02344 -1.27344,0.375 -1.625,0.9375l-18.8125,28.78125l-12.1875,-10.53125c-0.52344,-0.54297 -1.30859,-0.74609 -2.03125,-0.51953c-0.71875,0.22266 -1.25391,0.83203 -1.37891,1.57422c-0.125,0.74609 0.17578,1.49609 0.78516,1.94531l13.9375,12.0625c0.4375,0.37109 1.01563,0.53516 1.58203,0.45313c0.57031,-0.08594 1.07422,-0.41016 1.38672,-0.89062l20.09375,-30.6875c0.42969,-0.62891 0.46484,-1.44141 0.09375,-2.10547c-0.37109,-0.66016 -1.08594,-1.05469 -1.84375,-1.01953z"></path>
        </g>
    </g>
</svg>